#N canvas -104 -1216 1280 686 12;
#X obj 50 228 tgl 22 0 empty empty empty 17 7 0 10 -216373 -66577 -1
0 1;
#X text 80 230 play/stop;
#X obj 8 18 loadbang;
#X obj 17 91 f \$1;
#X obj 14 380 s all_detection_status;
#X obj 16 304 pack 0 0;
#X obj 73 260 t b b f;
#X obj 118 304 s detect_update;
#X floatatom 44 139 5 0 0 0 - - -;
#X obj 53 197 r h_detect\$1;
#X obj 87 52 bng 15 250 50 0 empty empty empty 17 7 0 10 -262144 -1
-1;
#N canvas 0 23 450 278 (subpatch) 0;
#X array \$1-notes_laser 5 float 3;
#A 0 43 48 63 65 47;
#X coords 0 20 5 90 200 140 1 0 0;
#X restore 694 225 graph;
#X obj 861 41 loadbang;
#X msg 863 66 1;
#X obj 863 90 s num_notes\$1;
#X obj 494 284 route \$1;
#X floatatom 494 308 5 0 0 0 - - -;
#X obj 495 259 r all_note_quantized;
#X obj 960 39 inlet;
#X floatatom 496 365 5 0 0 0 - - -;
#X obj 362 390 f \$1;
#X floatatom 363 420 5 0 0 0 - - -;
#X obj 289 359 loadbang;
#X obj 414 459 pack 0 0;
#X obj 459 412 t b b f;
#X obj 412 535 s all_midi_position;
#X obj 959 88 send num_notes\$1;
#X obj 16 48 del 1000;
#X obj 367 359 r update_midis;
#X obj 178 37 r update_midis;
#X obj 37 441 loadbang;
#X obj 114 441 r update_midis;
#X obj 44 162 s id\$1;
#X obj 493 340 tabread \$1-notes_laser;
#X obj 203 202 send \$1-notes_laser;
#X msg 59 501 read generated_sequences/sorted_notes.txt;
#X obj 60 530 text define generated_sequences/sorted_notes.txt;
#X obj 178 138 text get generated_sequences/sorted_notes.txt;
#X obj 208 89 f \$1;
#X obj 523 38 r init_midis;
#X obj 548 183 send \$1-notes_laser;
#X obj 553 70 f \$1;
#X obj 522 119 text get init_sequences/notesCmaj.txt;
#X obj 40 605 text define init_sequences/notesCmaj.txt;
#X msg 41 573 read init_sequences/notesCmaj.txt;
#X obj 304 558 r init_midis;
#X obj 1041 291 s detect_update;
#X obj 1041 217 r notechange\$1;
#X obj 550 415 s midinote\$1;
#X connect 0 0 6 0;
#X connect 2 0 27 0;
#X connect 3 0 5 0;
#X connect 3 0 8 0;
#X connect 5 0 4 0;
#X connect 6 0 7 0;
#X connect 6 1 5 0;
#X connect 6 2 5 1;
#X connect 8 0 32 0;
#X connect 9 0 0 0;
#X connect 10 0 3 0;
#X connect 12 0 13 0;
#X connect 13 0 14 0;
#X connect 15 0 16 0;
#X connect 16 0 33 0;
#X connect 17 0 15 0;
#X connect 18 0 26 0;
#X connect 19 0 24 0;
#X connect 19 0 48 0;
#X connect 20 0 21 0;
#X connect 21 0 23 0;
#X connect 22 0 20 0;
#X connect 23 0 25 0;
#X connect 24 1 23 0;
#X connect 24 2 23 1;
#X connect 27 0 3 0;
#X connect 28 0 20 0;
#X connect 29 0 38 0;
#X connect 30 0 35 0;
#X connect 30 0 44 0;
#X connect 31 0 35 0;
#X connect 33 0 19 0;
#X connect 35 0 36 0;
#X connect 37 0 34 0;
#X connect 38 0 37 0;
#X connect 39 0 41 0;
#X connect 41 0 42 0;
#X connect 42 0 40 0;
#X connect 44 0 43 0;
#X connect 45 0 44 0;
#X connect 47 0 46 0;
