#N canvas 0 23 1280 812 16;
#X msg 72 100 devices;
#X msg 95 193 close;
#X obj 78 270 t f f;
#X obj 78 240 comport 1 9600;
#X text 80 28 **install comport-v1.1.1 via 'Find Externals'**;
#X text 190 109 Replace the number of the port with the arduino after
"open";
#X obj 111 135 loadbang;
#X obj 228 354 bng 15 250 50 0 empty empty empty 17 7 0 10 -262144
-1 -1;
#X floatatom 228 414 5 0 0 0 - - -;
#X obj 300 386 + 1;
#X obj 183 321 sel 255;
#X msg 183 354 0;
#X obj 228 386 float;
#X msg 214 455 all \$1;
#X msg 107 428 all \$1;
#X msg 68 500 vis 5 1;
#X obj 147 556 outlet;
#X obj 153 499 clone com_parse 6;
#X obj 204 133 r laser_round;
#X msg 167 194 open \$1;
#X obj 167 166 f;
#X obj 345 133 r comport_device;
#X obj 71 72 r what_device?;
#X connect 0 0 3 0;
#X connect 1 0 3 0;
#X connect 2 0 14 0;
#X connect 2 1 10 0;
#X connect 3 0 2 0;
#X connect 6 0 20 0;
#X connect 7 0 12 0;
#X connect 8 0 13 0;
#X connect 9 0 12 1;
#X connect 10 0 11 0;
#X connect 10 1 7 0;
#X connect 11 0 12 0;
#X connect 12 0 8 0;
#X connect 12 0 9 0;
#X connect 13 0 17 1;
#X connect 14 0 17 0;
#X connect 15 0 17 0;
#X connect 17 0 16 0;
#X connect 18 0 20 0;
#X connect 19 0 3 0;
#X connect 20 0 19 0;
#X connect 21 0 20 1;
