#N canvas 634 -791 450 486 12;
#X msg 155 71 bang;
#X obj 155 129 until;
#X text 200 70 start;
#X obj 155 157 f;
#X obj 193 157 + 1;
#X obj 238 156 sel 0;
#X obj 107 70 inlet;
#X obj 155 210 tabread all_detection_status;
#X obj 193 183 mod 16;
#X obj 136 242 +;
#X floatatom 137 266 5 0 0 0 - - -;
#X msg 106 131 0;
#X obj 146 98 t b b;
#X obj 151 431 outlet;
#X obj 138 359 > 0;
#X obj 95 359 == 0;
#X obj 92 432 outlet;
#X obj 140 315 f;
#X obj 76 395 sel 1 0;
#X obj 142 395 sel 1 0;
#X obj 250 181 t b b;
#X floatatom 194 359 5 0 0 0 - - -;
#X connect 0 0 12 0;
#X connect 1 0 3 0;
#X connect 3 0 4 0;
#X connect 3 0 7 0;
#X connect 4 0 8 0;
#X connect 5 0 20 0;
#X connect 6 0 12 0;
#X connect 7 0 9 0;
#X connect 8 0 3 1;
#X connect 8 0 5 0;
#X connect 9 0 10 0;
#X connect 10 0 9 1;
#X connect 10 0 17 1;
#X connect 11 0 10 0;
#X connect 12 0 1 0;
#X connect 12 1 11 0;
#X connect 14 0 19 0;
#X connect 15 0 18 0;
#X connect 17 0 15 0;
#X connect 17 0 14 0;
#X connect 17 0 21 0;
#X connect 18 0 16 0;
#X connect 19 0 13 0;
#X connect 20 0 17 0;
#X connect 20 1 1 1;
