#N canvas 218 -1308 1311 676 12;
#X obj 389 148 loadbang;
#X floatatom 387 250 5 0 0 0 - - -;
#X obj 344 407 spigot;
#X obj 269 407 spigot;
#X floatatom 344 438 5 0 0 0 - - -;
#X floatatom 269 438 5 0 0 0 - - -;
#X obj 269 471 * 100;
#X obj 269 502 +;
#X floatatom 271 558 5 0 0 0 - - -;
#X obj 388 225 + 1;
#X obj 326 365 ==;
#X obj 401 365 ==;
#X obj 247 305 inlet;
#X obj 308 300 inlet;
#X obj 265 637 outlet;
#X obj 389 177 f \$1;
#X obj 389 201 * 2;
#X obj 431 293 + 1;
#X floatatom 431 317 5 0 0 0 - - -;
#X connect 0 0 15 0;
#X connect 1 0 17 0;
#X connect 1 0 11 1;
#X connect 2 0 4 0;
#X connect 3 0 5 0;
#X connect 4 0 7 1;
#X connect 5 0 6 0;
#X connect 6 0 7 0;
#X connect 7 0 8 0;
#X connect 8 0 14 0;
#X connect 9 0 1 0;
#X connect 10 0 3 1;
#X connect 11 0 2 1;
#X connect 12 0 2 0;
#X connect 12 0 3 0;
#X connect 13 0 11 0;
#X connect 13 0 10 0;
#X connect 15 0 16 0;
#X connect 16 0 9 0;
#X connect 17 0 18 0;
#X connect 18 0 10 1;
