#N canvas 588 -1378 941 557 12;
#X msg 542 79 bang;
#X obj 542 137 until;
#X text 587 78 start;
#X obj 542 165 f;
#X obj 580 165 + 1;
#X obj 625 164 sel 0;
#X obj 494 78 inlet;
#X obj 519 260 +;
#X floatatom 491 297 5 0 0 0 - - -;
#X msg 493 139 0;
#X obj 533 106 t b b;
#X obj 538 439 outlet;
#X obj 527 323 f;
#X obj 645 193 t b b;
#X obj 564 250 > 0;
#X obj 580 191 mod 5000;
#X obj 542 218 tabread queued_notes;
#X connect 0 0 10 0;
#X connect 1 0 3 0;
#X connect 3 0 4 0;
#X connect 3 0 16 0;
#X connect 4 0 15 0;
#X connect 5 0 13 0;
#X connect 6 0 10 0;
#X connect 7 0 8 0;
#X connect 8 0 7 1;
#X connect 8 0 12 1;
#X connect 9 0 8 0;
#X connect 10 0 1 0;
#X connect 10 1 9 0;
#X connect 12 0 11 0;
#X connect 13 0 12 0;
#X connect 13 1 1 1;
#X connect 14 0 7 0;
#X connect 15 0 3 1;
#X connect 15 0 5 0;
#X connect 16 0 14 0;
