#N canvas 5 23 1428 812 12;
#X obj 232 466 f;
#X obj 268 466 f;
#X obj 240 502 makenote;
#X obj 240 531 stripnote;
#X obj 240 592 midiformat;
#X obj 250 646 midiflush;
#X obj 247 679 midiout;
#X obj 345 605 bng 15 250 50 0 empty empty empty 17 7 0 10 -262144
-1 -1;
#X obj 244 565 pack 0 0;
#X obj 192 188 t b b;
#X obj 303 411 loadbang;
#X msg 124 573 54 54;
#X floatatom 114 426 5 0 0 0 - - -;
#X obj -14 183 tabread all_midi_position;
#X floatatom -8 156 5 0 0 0 - - -;
#X obj 162 125 bng 15 250 50 0 empty empty empty 17 7 0 10 -262144
-1 -1;
#X obj 250 51 t b b b;
#X msg 444 70 1;
#X msg 504 76 0;
#X floatatom 458 105 5 0 0 0 - - -;
#X obj 332 167 spigot;
#X obj 330 106 spigot;
#X text 414 232 TODO: NOTE AANHOUDEN + note veranderen bij hoogte probleem:
meerdere noten aangeslagen bij verlaten hand;
#X obj 246 26 r notechange\$1;
#X obj 145 46 r h_on\$1;
#X obj 444 47 r h_on\$1;
#X obj 516 49 r h_out\$1;
#X obj -17 90 r h_on\$1;
#X obj 382 545 r h_out\$1;
#X obj -9 131 f \$1;
#X obj 643 83 inlet;
#X obj 183 565 s notes;
#X obj 113 398 r midinote\$1;
#X msg 301 438 10;
#X obj 318 681 s midiout_copy;
#X obj 475 323 r h_on\$1;
#X obj 475 352 bng 15 250 50 0 empty empty empty 17 7 0 10 -262144
-1 -1;
#X obj 478 385 timer;
#X floatatom 478 409 5 0 0 0 - - -;
#X obj 540 350 bng 15 250 50 0 empty empty empty 17 7 0 10 -262144
-1 -1;
#X obj 543 383 timer;
#X floatatom 543 407 5 0 0 0 - - -;
#X obj 617 351 bng 15 250 50 0 empty empty empty 17 7 0 10 -262144
-1 -1;
#X obj 620 384 timer;
#X floatatom 620 408 5 0 0 0 - - -;
#X obj 617 322 r notechange\$1;
#X obj 747 300 tgl 15 0 empty empty empty 17 7 0 10 -262144 -1 -1 0
1;
#X obj 540 321 r h_out\$1;
#X obj 744 324 metro 5000;
#X obj 328 194 bng 15 250 50 0 empty empty empty 17 7 0 10 -262144
-1 -1;
#X obj 325 134 pipe 200;
#X obj 287 319 r h_distance\$1;
#X floatatom 339 372 5 0 0 0 - - -;
#X obj 287 343 scale 0 100 0 127;
#X connect 0 0 2 0;
#X connect 1 0 2 1;
#X connect 2 0 3 0;
#X connect 2 1 3 1;
#X connect 3 0 8 0;
#X connect 3 0 31 0;
#X connect 3 1 8 1;
#X connect 4 0 5 0;
#X connect 5 0 6 0;
#X connect 5 0 34 0;
#X connect 7 0 5 0;
#X connect 8 0 4 0;
#X connect 9 0 1 0;
#X connect 9 0 0 0;
#X connect 10 0 33 0;
#X connect 11 0 4 0;
#X connect 12 0 0 1;
#X connect 14 0 13 0;
#X connect 15 0 9 0;
#X connect 16 1 21 0;
#X connect 16 2 7 0;
#X connect 17 0 19 0;
#X connect 18 0 19 0;
#X connect 19 0 20 1;
#X connect 19 0 21 1;
#X connect 20 0 49 0;
#X connect 21 0 50 0;
#X connect 23 0 16 0;
#X connect 24 0 15 0;
#X connect 25 0 17 0;
#X connect 26 0 18 0;
#X connect 27 0 29 0;
#X connect 28 0 7 0;
#X connect 29 0 14 0;
#X connect 32 0 12 0;
#X connect 33 0 1 1;
#X connect 35 0 36 0;
#X connect 36 0 37 1;
#X connect 37 0 38 0;
#X connect 39 0 40 1;
#X connect 40 0 41 0;
#X connect 42 0 43 1;
#X connect 43 0 44 0;
#X connect 45 0 42 0;
#X connect 46 0 48 0;
#X connect 47 0 39 0;
#X connect 48 0 43 0;
#X connect 48 0 40 0;
#X connect 48 0 37 0;
#X connect 49 0 9 0;
#X connect 50 0 20 0;
#X connect 51 0 53 0;
#X connect 53 0 1 1;
#X connect 53 0 52 0;
