#N canvas 306 -853 920 709 12;
#X msg 233 502 record;
#X msg 182 501 stop;
#X obj -54 538 cyclone/seq;
#X obj -169 503 r midiout_copy;
#X msg 239 398 const 0;
#X obj 186 106 count_played_notes;
#X obj 206 203 timer;
#X obj 53 68 r detect_update;
#X obj 237 127 r banger;
#X obj 206 178 bang;
#X floatatom 147 156 5 0 0 0 - - -;
#X obj 133 318 bng 15 250 50 0 empty empty empty 17 7 0 10 -262144
-1 -1;
#X obj 202 320 bng 15 250 50 0 empty empty empty 17 7 0 10 -262144
-1 -1;
#X obj 206 251 sel 1;
#X obj 133 291 spigot;
#X obj 76 292 spigot;
#X floatatom 107 158 5 0 0 0 - - -;
#X obj 63 319 bng 15 250 50 0 empty empty empty 17 7 0 10 -262144 -1
-1;
#X obj 116 400 s detect_update;
#X obj 70 369 t b b b;
#X obj 32 399 pipe 100;
#X msg -53 502 write played_sequences/seq.mid;
#X obj 29 478 s musicbot_GO;
#X obj 63 162 sel 1;
#X obj 195 288 sel 1;
#X obj 30 453 spigot;
#X obj 185 131 == 1;
#X obj 206 227 > 4000;
#X floatatom 90 452 5 0 0 0 - - -;
#X obj 67 428 r musicbot_avail;
#X obj 107 134 >= 10;
#X floatatom 265 226 5 0 0 0 - - -;
#X floatatom -7 136 5 0 0 0 - - -;
#X obj 61 136 >= 45;
#X obj 240 426 s queued_notes;
#X obj 147 132 < 10;
#X obj 218 155 r midi_input;
#X obj 199 71 r midi_input;
#X connect 0 0 2 0;
#X connect 1 0 2 0;
#X connect 3 0 2 0;
#X connect 4 0 34 0;
#X connect 5 0 26 0;
#X connect 5 0 30 0;
#X connect 5 0 32 0;
#X connect 5 0 33 0;
#X connect 5 0 35 0;
#X connect 6 0 27 0;
#X connect 6 0 31 0;
#X connect 7 0 5 0;
#X connect 8 0 6 1;
#X connect 9 0 6 0;
#X connect 10 0 14 1;
#X connect 11 0 1 0;
#X connect 11 0 4 0;
#X connect 12 0 0 0;
#X connect 13 0 14 0;
#X connect 13 0 15 0;
#X connect 13 0 6 0;
#X connect 14 0 11 0;
#X connect 15 0 17 0;
#X connect 16 0 15 1;
#X connect 17 0 21 0;
#X connect 17 0 19 0;
#X connect 19 0 20 0;
#X connect 19 1 18 0;
#X connect 19 2 4 0;
#X connect 20 0 25 0;
#X connect 21 0 2 0;
#X connect 23 0 17 0;
#X connect 24 0 12 0;
#X connect 25 0 22 0;
#X connect 26 0 9 0;
#X connect 26 0 24 0;
#X connect 27 0 13 0;
#X connect 29 0 25 1;
#X connect 29 0 28 0;
#X connect 30 0 16 0;
#X connect 33 0 23 0;
#X connect 35 0 10 0;
#X connect 36 0 9 0;
#X connect 37 0 5 0;
