#N canvas 0 23 1133 811 12;
#X msg 244 427 28;
#X obj 208 458 ctlout;
#X obj 213 88 loadbang;
#X msg 179 120 0;
#X obj 199 403 f;
#X floatatom 199 427 5 0 0 0 - - -;
#X obj 66 71 r musicbotint;
#X obj 179 64 r init_midis;
#X obj 291 89 + 15;
#X obj 196 374 scale 0 90 0 127;
#X obj 289 118 mod 91;
#X obj 342 461 ctlout;
#X obj 333 406 f;
#X floatatom 333 430 5 0 0 0 - - -;
#X msg 377 430 39;
#X obj 330 378 scale 0 90 14 110;
#X obj 480 460 ctlout;
#X obj 471 405 f;
#X floatatom 471 429 5 0 0 0 - - -;
#X obj 144 170 f;
#X obj 80 116 bng 15 250 50 0 empty empty empty 17 7 0 10 -262144 -1
-1;
#X floatatom 81 230 5 0 0 0 - - -;
#X msg 515 429 43;
#X obj 468 377 scale 0 90 7 55;
#X connect 0 0 1 1;
#X connect 2 0 3 0;
#X connect 2 0 0 0;
#X connect 2 0 14 0;
#X connect 2 0 22 0;
#X connect 3 0 9 0;
#X connect 3 0 15 0;
#X connect 3 0 19 0;
#X connect 3 0 23 0;
#X connect 4 0 5 0;
#X connect 5 0 1 0;
#X connect 6 0 19 0;
#X connect 7 0 3 0;
#X connect 8 0 10 0;
#X connect 9 0 4 0;
#X connect 10 0 19 1;
#X connect 12 0 13 0;
#X connect 13 0 11 0;
#X connect 14 0 11 1;
#X connect 15 0 12 0;
#X connect 17 0 18 0;
#X connect 18 0 16 0;
#X connect 19 0 8 0;
#X connect 19 0 9 0;
#X connect 19 0 15 0;
#X connect 19 0 21 0;
#X connect 19 0 23 0;
#X connect 20 0 19 0;
#X connect 22 0 16 1;
#X connect 23 0 17 0;
