#N canvas 0 23 976 654 12;
#X floatatom 154 99 0 0 120 0 - - -;
#X text 192 101 level \, dB;
#X floatatom 194 127 0 0 100 0 - - -;
#X text 236 122 liveness \, 0-100;
#X floatatom 233 156 4 0 5000 0 - - -;
#X floatatom 273 181 0 0 100 0 - - -;
#X text 281 154 crossover frequency \, Hz.;
#X text 309 183 HF damping \, percent;
#X obj 76 250 rev3~ 100 90 3000 20;
#X text 307 252 4 channel reverb;
#X obj 76 214 *~ 0.2;
#X obj 76 47 inlet~;
#X obj 76 450 outlet~;
#X obj 192 450 outlet~;
#X obj 307 450 outlet~;
#X obj 423 450 outlet~;
#X connect 0 0 8 2;
#X connect 2 0 8 3;
#X connect 4 0 8 4;
#X connect 5 0 8 5;
#X connect 8 0 12 0;
#X connect 8 1 13 0;
#X connect 8 2 14 0;
#X connect 8 3 15 0;
#X connect 10 0 8 0;
#X connect 11 0 10 0;
