#N canvas 55 38 1110 797 12;
#X obj 149 109 tgl 15 0 empty empty empty 17 7 0 10 -262144 -1 -1 1
1;
#X obj 198 173 f;
#X obj 258 171 + 1;
#X floatatom 198 197 5 0 0 0 - - -;
#X obj 78 75 r notes;
#X floatatom 136 225 5 0 0 0 - - -;
#X msg 64 221 0;
#X obj 148 80 loadbang;
#X msg 255 110 0;
#X obj 64 197 del 10;
#X obj 147 130 metro 10;
#X obj 259 198 mod 5000;
#X obj 130 284 spigot;
#X obj 166 258 r musicbot_avail;
#X obj 112 356 tabwrite queued_notes;
#X obj 130 308 change;
#X connect 0 0 10 0;
#X connect 1 0 2 0;
#X connect 1 0 3 0;
#X connect 2 0 11 0;
#X connect 3 0 14 1;
#X connect 4 0 5 0;
#X connect 4 0 9 0;
#X connect 5 0 12 0;
#X connect 6 0 5 0;
#X connect 7 0 0 0;
#X connect 8 0 1 0;
#X connect 9 0 6 0;
#X connect 10 0 1 0;
#X connect 10 0 5 0;
#X connect 11 0 1 1;
#X connect 12 0 15 0;
#X connect 13 0 12 1;
#X connect 15 0 14 0;
