#N struct 1019-point float x0 float y0 float xs float ys float fg float
in float gridx float gridy;
#N canvas -74 -1417 1631 1351 12;
#X obj 764 1124 4ch_output_section;
#X obj 750 796 soundscape1;
#X obj 741 735 bng 15 250 50 0 empty empty empty 17 7 0 10 -262144
-1 -1;
#X obj 809 738 bng 30 250 50 0 empty empty empty 17 7 0 10 -262144
-1 -1;
#X obj 650 940 r notes;
#X floatatom 649 969 5 36 144 0 - - -;
#X msg 649 998 next \$1;
#X obj 651 1031 clone synth.cl 64;
#X msg 633 10 \; notes 0 58 55 58 56 79 70;
#X msg 622 114 \; notes 0 72 75 58 56 79 60;
#X obj 143 386 _Laser;
#X obj -6 281 tgl 15 0 empty empty empty 17 7 0 10 -262144 -1 -1 0
1;
#X floatatom 80 319 5 0 0 0 - - -;
#X text -27 233 hand detected;
#X floatatom 217 320 5 0 0 0 - - -;
#X msg 622 63 \; notes 0 60 62 63 65 63 62;
#X text 28 211 hit interval;
#X text 127 232 sequence;
#X text 257 191 seq amount;
#X msg 119 255 0 58 55 58 56 79 70;
#X floatatom 355 257 5 0 0 0 - - -;
#X text 512 235 laser number;
#N canvas 0 23 450 278 (subpatch) 0;
#X array all_detection_status 16 float 3;
#A 0 0 0 0 0 0 0 0 0 0 0 0 0 0 0 0 0;
#X coords 0 1.5 16 -1 200 140 1 0 0;
#X restore 34 19 graph;
#X obj -51 785 text define dummy_melodies.txt;
#X obj 345 283 text get dummy_melodies.txt;
#X msg -52 755 read dummy_melodies.txt;
#X obj -48 726 loadbang;
#X obj 722 701 any_detection_check;
#X text 816 771 yes;
#X text 745 751 no;
#N canvas 0 23 450 278 (subpatch) 0;
#X array played_notes 50 float 3;
#A 0 62 56 62 65 67 68 69 70 71 72 73 74 79 76 77 78 80 83 88 92 96
98 100 104 108 109 112 70 114 115 117 88.4571 67 55 68 69 88.4571 118
58 123 124 125 63 124 88.4571 60 88.4571 88.4571 88.4571 58;
#X coords 0 144 50 0 200 140 1 0 0;
#X restore 281 21 graph;
#X obj 132 753 table all_detection_status;
#X obj 238 468 metro 50;
#X obj 240 447 tgl 15 0 empty empty empty 17 7 0 10 -262144 -1 -1 0
1;
#X obj 107 511 f;
#X obj 167 509 + 1;
#X floatatom 107 535 5 0 0 0 - - -;
#X obj 37 571 r notes;
#X floatatom 23 598 5 0 0 0 - - -;
#X obj 167 535 mod 50;
#X obj 725 675 r detect_update;
#X obj 101 617 tabwrite played_notes;
#X obj 356 230 loadbang;
#X msg 278 221 6;
#X msg 75 231 300;
#X obj 696 225 _serialReciever;
#X floatatom 693 270 5 0 0 0 - - -;
#X obj 698 327 line;
#X floatatom 698 355 5 0 0 0 - - -;
#X obj 810 437 change;
#X obj 809 470 s h_detect;
#X obj -7 254 r h_detect;
#X msg 697 302 \$1 100;
#X obj 811 409 > 110;
#X text 867 410 threshold;
#X obj 651 1064 *~ 0.1;
#X floatatom 618 461 5 0 0 0 - - -;
#X obj 617 435 round 1 @nearest 1;
#X obj 616 493 s h_distance_seq_amount;
#X obj 169 282 r h_distance_seq_amount;
#X obj 617 410 scale 110 490 7 2;
#X floatatom 467 434 5 0 0 0 - - -;
#X obj 467 457 s h_distance_inter;
#X obj 34 280 r h_distance_inter;
#X obj 467 410 scale 110 550 550 50;
#X obj 197 959 seq;
#X obj 241 933 bng 15 250 50 0 empty empty empty 17 7 0 10 -262144
-1 -1;
#X obj 187 1017 midiparse;
#X obj 68 1162 unpack;
#X obj 68 1202 nbx 3 14 -1e+37 1e+37 0 0 empty empty empty 0 -8 0 10
-228856 -1 -1 0 256;
#X obj 81 1188 nbx 3 14 -1e+37 1e+37 0 0 empty empty empty 0 -8 0 10
-228856 -1 -1 0 256;
#N canvas 638 210 345 266 polysynth 0;
#X obj 65 20 inlet;
#N canvas 667 245 370 323 synth 0;
#X obj 234 124 / 127;
#X obj 219 204 *~;
#X obj 81 134 phasor~;
#X obj 81 102 mtof;
#X obj 81 31 inlet;
#X obj 219 273 outlet~;
#X obj 81 70 unpack float float;
#X obj 234 174 vline~;
#X msg 234 149 \$1 50;
#X obj 81 162 cyclone/triangle~ 0.9;
#X obj 219 236 /~ 3;
#X connect 0 0 8 0;
#X connect 1 0 10 0;
#X connect 2 0 9 0;
#X connect 3 0 2 0;
#X connect 4 0 6 0;
#X connect 6 0 3 0;
#X connect 6 1 0 0;
#X connect 7 0 1 1;
#X connect 8 0 7 0;
#X connect 9 0 1 0;
#X connect 10 0 5 0;
#X restore 41 151 pd synth;
#X obj 65 84 pack f f f;
#X obj 100 207 outlet~;
#N canvas 667 245 370 323 synth 0;
#X obj 234 124 / 127;
#X obj 219 204 *~;
#X obj 81 134 phasor~;
#X obj 81 102 mtof;
#X obj 81 31 inlet;
#X obj 219 273 outlet~;
#X obj 81 70 unpack float float;
#X obj 234 174 vline~;
#X msg 234 149 \$1 50;
#X obj 81 162 cyclone/triangle~ 0.9;
#X obj 219 236 /~ 3;
#X connect 0 0 8 0;
#X connect 1 0 10 0;
#X connect 2 0 9 0;
#X connect 3 0 2 0;
#X connect 4 0 6 0;
#X connect 6 0 3 0;
#X connect 6 1 0 0;
#X connect 7 0 1 1;
#X connect 8 0 7 0;
#X connect 9 0 1 0;
#X connect 10 0 5 0;
#X restore 100 151 pd synth;
#N canvas 667 245 370 323 synth 0;
#X obj 234 124 / 127;
#X obj 219 204 *~;
#X obj 81 134 phasor~;
#X obj 81 102 mtof;
#X obj 81 31 inlet;
#X obj 219 273 outlet~;
#X obj 81 70 unpack float float;
#X obj 234 174 vline~;
#X msg 234 149 \$1 50;
#X obj 81 162 cyclone/triangle~ 0.9;
#X obj 219 236 /~ 3;
#X connect 0 0 8 0;
#X connect 1 0 10 0;
#X connect 2 0 9 0;
#X connect 3 0 2 0;
#X connect 4 0 6 0;
#X connect 6 0 3 0;
#X connect 6 1 0 0;
#X connect 7 0 1 1;
#X connect 8 0 7 0;
#X connect 9 0 1 0;
#X connect 10 0 5 0;
#X restore 161 152 pd synth;
#X text 124 19 3-voice polyphonic synth;
#X obj 65 115 route 1 2 3, f 18;
#X obj 65 52 poly 3 1;
#X connect 0 0 8 0;
#X connect 1 0 3 0;
#X connect 2 0 7 0;
#X connect 4 0 3 0;
#X connect 5 0 3 0;
#X connect 7 0 1 0;
#X connect 7 1 4 0;
#X connect 7 2 5 0;
#X connect 8 0 2 0;
#X connect 8 1 2 1;
#X connect 8 2 2 2;
#X restore 192 1123 pd polysynth;
#X obj 188 1162 ./out~;
#X msg 454 959 connect localhost 13001;
#X obj 462 1022 netsend;
#X msg 521 988 send 1;
#X msg -20 896 read next_midis/0.mid;
#X msg 192 890 hook \$1;
#X floatatom 191 867 5 0 0 0 - - -;
#X msg 282 885 stop;
#X obj 196 991 cyclone/midiflush;
#X obj 651 1101 ./out~;
#X obj 764 1090 hsl 128 15 0 2 0 0 empty empty empty -2 -8 0 10 -262144
-1 -1 0 1;
#X obj 310 1054 tgl 15 0 empty empty empty 17 7 0 10 -262144 -1 -1
0 1;
#X obj 310 1074 _Laser_midi;
#X connect 2 0 1 0;
#X connect 3 0 1 1;
#X connect 4 0 5 0;
#X connect 5 0 6 0;
#X connect 6 0 7 0;
#X connect 7 0 55 0;
#X connect 11 0 10 0;
#X connect 12 0 10 1;
#X connect 14 0 10 3;
#X connect 19 0 10 2;
#X connect 20 0 10 4;
#X connect 20 0 24 0;
#X connect 24 0 10 2;
#X connect 25 0 23 0;
#X connect 26 0 25 0;
#X connect 27 0 3 0;
#X connect 27 1 2 0;
#X connect 32 0 34 0;
#X connect 33 0 32 0;
#X connect 34 0 35 0;
#X connect 34 0 36 0;
#X connect 35 0 39 0;
#X connect 36 0 41 1;
#X connect 37 0 38 0;
#X connect 37 0 41 0;
#X connect 38 0 41 0;
#X connect 39 0 34 1;
#X connect 40 0 27 0;
#X connect 42 0 20 0;
#X connect 42 0 43 0;
#X connect 42 0 44 0;
#X connect 43 0 14 0;
#X connect 44 0 12 0;
#X connect 45 0 46 0;
#X connect 46 0 52 0;
#X connect 47 0 48 0;
#X connect 48 0 53 0;
#X connect 48 0 60 0;
#X connect 48 0 64 0;
#X connect 49 0 50 0;
#X connect 51 0 11 0;
#X connect 52 0 47 0;
#X connect 53 0 49 0;
#X connect 55 0 81 0;
#X connect 55 0 81 1;
#X connect 56 0 58 0;
#X connect 57 0 56 0;
#X connect 59 0 14 0;
#X connect 60 0 57 0;
#X connect 61 0 62 0;
#X connect 63 0 12 0;
#X connect 64 0 61 0;
#X connect 65 0 80 0;
#X connect 66 0 65 0;
#X connect 67 0 68 0;
#X connect 67 0 71 0;
#X connect 68 0 69 0;
#X connect 68 1 70 0;
#X connect 71 0 72 0;
#X connect 71 0 72 1;
#X connect 73 0 74 0;
#X connect 75 0 74 0;
#X connect 76 0 65 0;
#X connect 77 0 65 0;
#X connect 78 0 77 0;
#X connect 79 0 65 0;
#X connect 79 0 80 0;
#X connect 80 0 67 0;
#X connect 82 0 0 0;
#X connect 84 0 71 0;
