#N canvas -201 -1147 1280 665 12;
#X text 648 472 threshold;
#X floatatom 272 389 5 0 0 0 - - -;
#X obj 401 531 round 1 @nearest 1;
#X obj 573 554 s h_detect\$1;
#X obj 281 446 s h_distance\$1;
#X obj 144 429 f \$1;
#X floatatom 145 459 5 0 0 0 - - -;
#X obj 134 401 loadbang;
#X obj 157 504 pack 0 0;
#X obj 202 457 t b b f;
#X obj 155 580 s all_distance;
#X obj 658 289 avg~;
#X obj 1077 -16 tgl 15 0 empty empty empty 17 7 0 10 -262144 -1 -1
1 1;
#X obj 659 315 nbx 8 14 -1e+37 1e+37 0 0 empty empty empty 0 -8 0 10
-228856 -1 -1 97.14 256;
#X obj 1076 -41 loadbang;
#X floatatom 627 420 5 0 0 0 - - -;
#X obj 365 167 loadbang;
#X obj 366 197 f \$1;
#X floatatom 366 221 5 0 0 0 - - -;
#X obj 573 226 sig~;
#X obj 576 180 inlet;
#X obj 953 -43 r h_detect\$1;
#X obj 870 131 - 1;
#X obj 811 163 spigot 1;
#X text 638 494 Scale according to moving avg as minimum;
#X obj 1098 43 bng 15 250 50 0 empty empty empty 17 7 0 10 -262144
-1 -1;
#X msg 1018 112 1, f 8;
#X obj 908 111 spigot 0;
#X obj 592 439 > 110;
#X obj 550 309 snaps;
#X obj 591 486 change;
#X obj 418 414 r num_notes\$1;
#X floatatom 426 469 5 0 0 0 - - -;
#X obj 705 521 sel 0;
#X obj 706 549 s h_out\$1;
#X obj 326 554 f \$1;
#X floatatom 327 584 5 0 0 0 - - -;
#X obj 316 526 loadbang;
#X obj 339 629 pack 0 0;
#X obj 384 582 t b b f;
#X obj 336 670 s all_note_quantized;
#X floatatom 465 575 5 0 0 0 - - -;
#X obj 425 383 scale 110 550 100 0;
#X obj 714 588 sel 1 0;
#X obj 714 612 s h_on\$1;
#X floatatom 458 246 5 0 0 0 - - -;
#X obj 478 610 change;
#X obj 534 706 s notechange\$1;
#X obj 487 642 bng 15 250 50 0 empty empty empty 17 7 0 10 -262144
-1 -1;
#X obj 550 285 lop~ 5;
#X obj 1081 4 metro 2000;
#X obj 1066 74 delay 2000;
#X floatatom 910 35 5 0 0 0 - - -;
#X obj 721 50 loadbang;
#X floatatom 916 138 5 0 0 0 - - -;
#X msg 716 84 150;
#X obj 861 383 switch;
#X obj 860 406 sig~;
#X obj 910 252 r h_on\$1;
#X msg 910 276 2;
#X obj 1022 233 r h_out\$1;
#X msg 1022 293 1;
#X obj 1025 260 del 5;
#X obj 626 208 pipe 50;
#X obj 663 335 + 30;
#X msg 751 85 1;
#X obj 739 128 pipe 200;
#X obj 580 654 f;
#X obj 402 505 scale 0 110 0 0;
#X obj 659 364 spigot;
#X obj 696 339 r start_cooldown;
#X obj 658 393 max 100;
#X floatatom 513 334 5 0 0 0 - - -;
#X connect 1 0 4 0;
#X connect 1 0 9 0;
#X connect 1 0 68 0;
#X connect 2 0 39 0;
#X connect 2 0 41 0;
#X connect 5 0 6 0;
#X connect 6 0 8 0;
#X connect 7 0 5 0;
#X connect 8 0 10 0;
#X connect 9 1 8 0;
#X connect 9 2 8 1;
#X connect 11 0 13 0;
#X connect 12 0 50 0;
#X connect 13 0 42 1;
#X connect 13 0 56 2;
#X connect 13 0 64 0;
#X connect 14 0 12 0;
#X connect 15 0 28 1;
#X connect 16 0 17 0;
#X connect 17 0 18 0;
#X connect 19 0 49 0;
#X connect 20 0 19 0;
#X connect 20 0 42 0;
#X connect 20 0 45 0;
#X connect 20 0 63 0;
#X connect 21 0 27 0;
#X connect 21 0 52 0;
#X connect 22 0 23 1;
#X connect 23 0 11 0;
#X connect 25 0 51 0;
#X connect 26 0 27 1;
#X connect 27 0 22 0;
#X connect 27 0 54 0;
#X connect 28 0 30 0;
#X connect 29 0 28 0;
#X connect 29 0 72 0;
#X connect 30 0 3 0;
#X connect 30 0 43 0;
#X connect 30 0 33 0;
#X connect 31 0 32 0;
#X connect 32 0 68 4;
#X connect 33 0 34 0;
#X connect 35 0 36 0;
#X connect 36 0 38 0;
#X connect 37 0 35 0;
#X connect 38 0 40 0;
#X connect 39 1 38 0;
#X connect 39 2 38 1;
#X connect 41 0 46 0;
#X connect 42 0 1 0;
#X connect 43 0 44 0;
#X connect 46 0 48 0;
#X connect 48 0 47 0;
#X connect 49 0 29 0;
#X connect 50 0 25 0;
#X connect 50 0 23 0;
#X connect 51 0 26 0;
#X connect 53 0 55 0;
#X connect 53 0 65 0;
#X connect 55 0 15 0;
#X connect 56 0 57 0;
#X connect 57 0 11 0;
#X connect 58 0 59 0;
#X connect 59 0 56 0;
#X connect 60 0 62 0;
#X connect 61 0 56 0;
#X connect 62 0 61 0;
#X connect 63 0 56 1;
#X connect 64 0 69 0;
#X connect 65 0 56 0;
#X connect 65 0 66 0;
#X connect 66 0 56 0;
#X connect 68 0 2 0;
#X connect 69 0 71 0;
#X connect 70 0 69 1;
#X connect 71 0 15 0;
