#N struct 1577-point float x0 float y0 float xs float ys float fg float
in float gridx float gridy;
#N canvas 0 23 1280 686 12;
#X floatatom 543 489 5 0 0 0 - - -;
#X floatatom 599 488 5 0 0 0 - - -;
#X text 528 487 X;
#X text 585 487 Y;
#X obj 543 521 else/f2s~ 10;
#X obj 543 435 unpack;
#X obj 599 544 else/f2s~ 10;
#X obj 594 221 else/slider2d 127 127 -1 1 -1 1 0 210 210 210 0 0 0
1 0 0 -0.979415 -0.794402 empty empty;
#X text 533 285 0;
#X text 670 412 2;
#X text 532 409 3;
#X floatatom 628 435 5 0 0 0 - - -;
#X obj 643 589 tgl 15 0 empty empty empty 17 7 0 10 -262144 -1 -1 0
1;
#X obj 67 482 else/vu~;
#X obj 68 545 vu 15 120 empty empty -1 -8 0 10 -66577 -1 1 0;
#X obj 132 482 else/vu~;
#X obj 133 545 vu 15 120 empty empty -1 -8 0 10 -66577 -1 1 0;
#X obj 197 482 else/vu~;
#X obj 198 545 vu 15 120 empty empty -1 -8 0 10 -66577 -1 1 0;
#X obj 261 482 else/vu~;
#X obj 262 545 vu 15 120 empty empty -1 -8 0 10 -66577 -1 1 0;
#X obj 45 422 pan4_with_center_and_distance~;
#X obj 45 719 throw~ speaker0;
#X obj 161 719 throw~ speaker1;
#X obj 276 719 throw~ speaker2;
#X obj 392 719 throw~ speaker3;
#X text 687 687 4 channel reverb;
#X obj 458 590 throw~ to_reverb;
#X obj 565 652 catch~ to_reverb;
#X obj 565 719 throw~ speaker0;
#X obj 681 719 throw~ speaker1;
#X obj 796 719 throw~ speaker2;
#X obj 912 719 throw~ speaker3;
#X obj 565 687 our_4ch_reverb~;
#X text 663 588 0 = pythagorian distance for loudness scaling;
#X text 660 484 x and y between -1 and 1 is 'inside' the space defined
by the speakers \, otherwise 'outside' the space defined by the speakers.
;
#X obj 543 462 * 10;
#X obj 599 462 * 10;
#X text 46 751 use in combination with the '4ch_output_section.pd'
patch;
#X obj 991 40 soundfiler;
#N canvas 0 22 450 300 (subpatch) 0;
#X array table 160000 float 0;
#X coords 0 1 159999 -1 100 60 1;
#X restore 1010 118 graph;
#X obj 1035 -33 loadbang;
#X msg 1017 190 \; pd dsp 1;
#X msg 1096 190 \; pd dsp 0;
#X obj 453 95 phasor~ 0.1;
#X obj 454 136 *~ 160000;
#X obj 455 186 tabread4~ table;
#X obj 988 -19 bng 15 250 50 0 empty empty empty 17 7 0 10 -262144
-1 -1;
#X msg 1000 16 read -resize speaker-1.wav table;
#X text 286 34 SET SAMPLERATE TO 16Khz;
#X obj 781 120 osc~ 0.1;
#X obj 780 149 snapshot~;
#X obj 705 60 tgl 15 0 empty empty empty 17 7 0 10 -262144 -1 -1 1
1;
#X obj 704 90 metro 1;
#X obj 687 29 loadbang;
#X obj 613 90 osc~ 0.1;
#X obj 631 164 snapshot~;
#X obj 718 188 pack f f;
#X obj 784 51 snapshot~;
#X obj 779 18 osc~ 0.01;
#X obj 223 300 else/vocoder~ 16 75;
#X obj 805 453 nbx 5 14 -1e+37 1e+37 0 0 empty empty empty 0 -8 0 10
-228856 -1 -1 0 256;
#X floatatom 220 199 5 0 0 0 - - -;
#X obj 220 238 osc~ 440;
#X obj 24 306 cyclone/scale~ -1 1 0.1 1;
#X obj 52 248 osc~ 10;
#X obj 78 43 osc~;
#X obj 99 143 +~;
#X obj 333 122 tgl 15 0 empty empty empty 17 7 0 10 -262144 -1 -1 1
1;
#X obj 329 140 metro 1;
#X obj 331 88 loadbang;
#X obj 154 167 snapshot~;
#X obj 76 70 cyclone/scale~ -1 1 250 450;
#X obj 108 117 cyclone/scale~ -1 1 100 -100;
#X obj 772 307 metro 50;
#X obj 772 342 bng 15 250 50 0 empty empty empty 0 -6 0 8 -262144 -1
-1;
#X obj 771 268 tgl 15 0 empty empty empty 0 -6 0 8 -262144 -1 -1 1
1;
#X text 730 267 start;
#X obj 771 229 loadbang;
#X obj 927 308 metro 50;
#X obj 927 343 bng 15 250 50 0 empty empty empty 0 -6 0 8 -262144 -1
-1;
#X obj 926 269 tgl 15 0 empty empty empty 0 -6 0 8 -262144 -1 -1 1
1;
#X text 885 268 start;
#X obj 991 308 random 10000;
#X obj 836 307 random 40000;
#X obj 1006 655 4ch_output_section;
#X obj 165 93 else/brown~;
#X obj 769 366 inlet;
#X obj 836 369 inlet;
#X msg 779 398 -100;
#X msg 835 405 300;
#X obj 43 363 *~ 0.25;
#X obj 293 362 *~ 0.3;
#X obj 217 267 *~ 0.3;
#X obj 1010 623 inlet;
#X connect 0 0 4 0;
#X connect 1 0 6 0;
#X connect 4 0 21 1;
#X connect 5 0 36 0;
#X connect 5 1 37 0;
#X connect 6 0 21 2;
#X connect 7 0 5 0;
#X connect 11 0 36 1;
#X connect 11 0 37 1;
#X connect 12 0 21 3;
#X connect 13 0 14 0;
#X connect 15 0 16 0;
#X connect 17 0 18 0;
#X connect 19 0 20 0;
#X connect 21 0 13 0;
#X connect 21 0 22 0;
#X connect 21 1 15 0;
#X connect 21 1 23 0;
#X connect 21 2 17 0;
#X connect 21 2 24 0;
#X connect 21 3 19 0;
#X connect 21 3 25 0;
#X connect 28 0 33 0;
#X connect 33 0 29 0;
#X connect 33 1 30 0;
#X connect 33 2 31 0;
#X connect 33 3 32 0;
#X connect 36 0 0 0;
#X connect 37 0 1 0;
#X connect 41 0 48 0;
#X connect 44 0 45 0;
#X connect 45 0 46 0;
#X connect 46 0 60 1;
#X connect 47 0 48 0;
#X connect 48 0 39 0;
#X connect 50 0 51 0;
#X connect 51 0 57 1;
#X connect 52 0 53 0;
#X connect 53 0 51 0;
#X connect 53 0 56 0;
#X connect 53 0 58 0;
#X connect 54 0 52 0;
#X connect 55 0 56 0;
#X connect 56 0 57 0;
#X connect 57 0 7 0;
#X connect 58 0 50 1;
#X connect 59 0 58 0;
#X connect 60 0 21 0;
#X connect 60 0 92 0;
#X connect 61 0 60 2;
#X connect 62 0 63 0;
#X connect 63 0 93 0;
#X connect 64 0 91 0;
#X connect 65 0 64 0;
#X connect 66 0 72 0;
#X connect 67 0 71 0;
#X connect 68 0 69 0;
#X connect 69 0 71 0;
#X connect 70 0 68 0;
#X connect 71 0 62 0;
#X connect 72 0 67 0;
#X connect 73 0 67 1;
#X connect 74 0 75 0;
#X connect 74 0 84 0;
#X connect 76 0 74 0;
#X connect 78 0 76 0;
#X connect 78 0 81 0;
#X connect 79 0 80 0;
#X connect 79 0 83 0;
#X connect 81 0 79 0;
#X connect 83 0 79 1;
#X connect 84 0 74 1;
#X connect 86 0 73 0;
#X connect 87 0 89 0;
#X connect 88 0 90 0;
#X connect 89 0 61 0;
#X connect 90 0 61 0;
#X connect 91 0 21 0;
#X connect 92 0 27 0;
#X connect 93 0 60 0;
#X connect 94 0 85 0;
#X coords 0 0 1 1 85 60 0;
