#N canvas 249 -1344 1280 1252 12;
#X obj 1030 240 tabread all_detection_status;
#X floatatom 1029 266 5 0 0 0 - - -;
#X floatatom 389 341 5 0 0 0 - - -;
#X obj 406 302 tabread all_midi_position;
#X obj 571 220 f \$1;
#X floatatom 571 244 5 0 0 0 - - -;
#X obj 420 165 r h_on\$1;
#X obj 696 173 loadbang;
#X obj 445 494 t b b b b;
#X obj 819 558 t b b b b;
#X obj 445 599 f;
#X obj 560 656 f;
#X obj 444 711 spigot 1;
#X obj 592 745 spigot 1;
#X obj 445 641 makenote;
#X obj 445 670 stripnote;
#X msg 598 708 0;
#X obj 598 677 delay 10;
#X msg 666 707 1;
#X obj 820 678 f;
#X msg 855 675 0;
#X obj 676 942 noteout;
#X floatatom 620 635 5 0 0 0 - - -;
#X obj 296 408 r h_on\$1;
#X obj 807 505 r h_out\$1;
#X obj 628 571 loadbang;
#X msg 628 595 100;
#X text 636 545 vel;
#X obj 584 448 r notechange\$1;
#X obj 309 863 s notes;
#X obj 172 208 inlet;
#X obj 544 506 bng 15 250 50 0 empty empty empty 17 7 0 10 -262144
-1 -1;
#X obj 886 380 bng 15 250 50 0 empty empty empty 17 7 0 10 -262144
-1 -1;
#X obj 153 683 r h_distance\$1;
#X obj 857 1024 midiout;
#X obj 812 882 pack 0 0;
#X msg 1042 865 1;
#X obj 831 951 cyclone/midiformat;
#X obj 37 37;
#X obj 865 989 midiflush;
#X obj 1082 463 bng 15 250 50 0 empty empty empty 17 7 0 10 -262144
-1 -1;
#X obj 561 179 r detect_update;
#X obj 451 73 r notechange\$1;
#X obj 1032 301 sel 0 1;
#X obj 173 480 pipe 300;
#X obj 1078 974 r h_out\$1;
#X connect 0 0 1 0;
#X connect 1 0 43 0;
#X connect 2 0 10 0;
#X connect 2 0 19 0;
#X connect 3 0 2 0;
#X connect 4 0 5 0;
#X connect 5 0 3 0;
#X connect 8 0 10 0;
#X connect 8 1 11 0;
#X connect 8 2 17 0;
#X connect 9 0 19 0;
#X connect 9 0 18 0;
#X connect 9 1 20 0;
#X connect 10 0 14 0;
#X connect 11 0 14 1;
#X connect 12 0 35 0;
#X connect 13 0 35 1;
#X connect 14 0 15 0;
#X connect 14 1 15 1;
#X connect 15 0 12 0;
#X connect 15 1 13 0;
#X connect 16 0 13 1;
#X connect 16 0 12 1;
#X connect 17 0 16 0;
#X connect 18 0 13 1;
#X connect 18 0 12 1;
#X connect 22 0 11 1;
#X connect 23 0 44 0;
#X connect 23 0 8 0;
#X connect 24 0 9 0;
#X connect 25 0 26 0;
#X connect 26 0 22 0;
#X connect 32 0 9 0;
#X connect 35 0 37 0;
#X connect 36 0 37 6;
#X connect 37 0 39 0;
#X connect 41 0 4 0;
#X connect 43 0 9 0;
#X connect 43 0 40 0;
#X connect 45 0 39 0;
